<svg version="1.1" id="Layer_1" xmlns="http://www.w3.org/2000/svg" xmlns:xlink="http://www.w3.org/1999/xlink" x="0px" y="0px"
	 width="100%" viewBox="0 0 932 278" enable-background="new 0 0 932 278" xml:space="preserve">
<path fill="#015751" opacity="1.000000" stroke="none" 
	d="
M1.000000,22.000000 
	C1.000000,22.000000 1.000000,21.500000 1.343616,21.138905 
	C4.349606,10.498756 11.096629,4.208312 21.000000,1.000000 
	C169.024078,1.000000 317.048157,1.000000 465.536133,1.468657 
	C466.000000,94.291542 466.000000,186.645767 466.000000,279.000000 
	C317.642578,279.000000 169.285172,279.000000 20.334984,278.672119 
	C10.916524,275.521942 4.897173,269.928101 2.341497,260.848602 
	C2.147948,260.161011 1.458782,259.612946 0.999998,259.000000 
	C1.000000,259.000000 1.000000,258.500000 1.381650,258.041077 
	C1.858201,256.929779 2.036207,256.277374 2.036218,255.625000 
	C2.037559,178.919617 2.030211,102.214249 1.972415,25.508904 
	C1.971534,24.339024 1.338185,23.169624 1.000000,22.000000 
M290.492371,193.228149 
	C290.560272,194.693130 290.628174,196.158096 290.695709,197.615387 
	C297.215912,197.615387 303.422577,197.615387 309.757416,197.615387 
	C309.757416,174.769119 309.770416,152.306915 309.727875,129.844833 
	C309.725067,128.365540 309.359863,126.874451 309.059235,125.410217 
	C307.002838,115.395363 298.839783,111.201508 289.572876,115.684639 
	C285.928864,117.447525 282.665436,119.997025 278.746765,122.495605 
	C278.746765,119.903923 278.746765,117.667130 278.746765,115.498184 
	C272.224457,115.498184 266.152161,115.498184 260.065125,115.498184 
	C260.065125,143.092728 260.065125,170.334503 260.065125,197.701233 
	C266.373413,197.701233 272.428619,197.701233 278.843628,197.701233 
	C278.843628,195.610031 278.843567,193.807709 278.843628,192.005402 
	C278.844269,173.356674 278.911316,154.707550 278.793854,136.059555 
	C278.767944,131.944046 280.976166,130.353073 284.477936,129.974991 
	C288.294708,129.562897 289.886383,131.919739 290.204834,135.346909 
	C290.404633,137.497269 290.472443,139.666550 290.475189,141.827499 
	C290.496735,158.644623 290.488098,175.461777 290.492371,193.228149 
M348.834686,182.496857 
	C348.834686,187.583313 348.834686,192.669769 348.834686,197.666901 
	C355.618103,197.666901 361.692322,197.666901 367.917419,197.666901 
	C367.917419,174.530746 367.929443,151.718124 367.886200,128.905594 
	C367.883728,127.600464 367.486664,126.282585 367.177307,124.993675 
	C364.831940,115.222549 356.898743,111.273605 347.810364,115.680237 
	C344.157257,117.451485 340.913483,120.066963 337.256104,122.446075 
	C337.062866,120.061760 336.873047,117.719696 336.685791,115.409500 
	C330.346313,115.409500 324.413055,115.409500 318.342285,115.409500 
	C318.342285,143.034973 318.342285,170.408966 318.342285,197.616669 
	C324.753021,197.616669 330.817627,197.616669 336.999573,197.616669 
	C336.999573,177.081512 336.940613,156.919601 337.097412,136.759369 
	C337.111877,134.892639 337.997986,132.266403 339.374847,131.373138 
	C341.046204,130.288803 344.499023,129.671387 345.683868,130.655167 
	C347.420807,132.097366 348.628906,135.124985 348.672821,137.502701 
	C348.943604,152.163895 348.824280,166.832291 348.834686,182.496857 
M391.890991,196.868469 
	C406.853088,202.774231 419.612213,197.020569 424.909851,181.890884 
	C429.537140,168.675659 429.877014,155.034439 427.359528,141.505798 
	C426.144928,134.978760 423.763947,128.208328 420.154114,122.699402 
	C415.205322,115.147148 406.950958,112.831818 398.076416,114.418663 
	C388.607391,116.111809 382.914185,122.452499 380.016876,131.185547 
	C375.016724,146.256973 375.237213,161.667038 378.454407,177.022751 
	C380.132446,185.032074 383.874939,192.032913 391.890991,196.868469 
M228.042587,190.420868 
	C228.042587,192.850845 228.042587,195.280807 228.042587,197.731506 
	C235.454956,197.731506 242.229111,197.731506 249.192474,197.731506 
	C249.192474,158.777359 249.192474,120.054367 249.192474,81.199783 
	C242.060410,81.199783 235.186035,81.199783 228.042358,81.199783 
	C228.042358,117.509407 228.042358,153.475601 228.042587,190.420868 
z"/>
<path fill="#FECC01" opacity="1.000000" stroke="none" 
	d="
M913.000000,279.000000 
	C764.975952,279.000000 616.951843,279.000000 468.463074,278.531342 
	C467.998932,185.708450 467.999451,93.354225 468.000000,1.000000 
	C616.024109,1.000000 764.048157,1.000000 912.881592,1.057718 
	C915.176147,1.803682 916.687378,2.441422 918.142273,3.188864 
	C924.711609,6.563745 929.536804,11.422227 931.197449,19.263147 
	C931.348145,32.287056 931.822388,44.887653 931.838013,57.488827 
	C931.915649,120.215614 931.878967,182.942551 931.858643,245.669434 
	C931.857239,250.128830 931.664124,254.588181 931.432556,259.427704 
	C929.928223,263.232361 928.551514,266.656860 926.979431,270.256439 
	C926.554626,270.695038 926.325195,270.958588 925.763245,271.256104 
	C922.987915,273.216156 920.545105,275.142151 917.854980,277.118103 
	C917.456116,277.241302 917.304688,277.314545 916.822571,277.331909 
	C915.327881,277.850708 914.163940,278.425354 913.000000,279.000000 
M650.182861,120.188766 
	C650.182861,120.188766 650.298950,120.204079 649.776794,120.385056 
	C649.593384,120.692657 649.410034,121.000259 649.215027,121.208626 
	C649.215027,121.208626 649.313660,121.224678 648.672852,121.352402 
	C648.221313,122.027756 647.769714,122.703110 647.294739,123.264290 
	C647.294739,123.264290 647.410522,123.277313 646.744995,123.499786 
	C645.774292,125.021240 644.547180,126.437576 643.873291,128.080765 
	C638.450439,141.302689 637.498352,155.044113 639.612732,169.039352 
	C640.067261,172.047699 641.326660,174.934448 642.096130,177.908478 
	C642.096130,177.908478 642.184875,177.823135 642.074036,178.627106 
	C644.160767,182.725220 646.247437,186.823334 648.892639,191.245819 
	C656.786926,199.363220 667.920288,201.565369 677.121643,196.829468 
	C685.287048,192.626816 690.773376,178.193527 688.413940,166.827087 
	C684.023315,166.635178 679.587280,166.441269 675.126953,166.246307 
	C674.122803,171.041534 673.607178,175.558517 672.110718,179.723145 
	C671.433350,181.608292 668.807739,182.793396 667.065979,184.296051 
	C665.671631,182.628281 663.326050,181.111923 663.032654,179.268921 
	C660.556885,163.714325 660.485352,148.081314 662.921204,132.511246 
	C663.183044,130.837357 665.291626,129.452377 666.543579,127.933380 
	C667.996460,129.469116 670.265259,130.790253 670.737000,132.584015 
	C671.810425,136.666122 672.001587,140.980255 672.532288,145.053940 
	C677.542236,145.053940 682.192444,145.065063 686.842468,145.040863 
	C687.474243,145.037567 688.105103,144.857346 689.520081,144.637024 
	C688.678528,139.748611 688.053467,135.024338 687.027954,130.388657 
	C684.884094,120.697464 679.408081,115.791641 669.710632,114.303055 
	C662.868958,113.252838 656.917603,115.339561 650.822754,119.329453 
	C650.612427,119.654800 650.402161,119.980156 650.182861,120.188766 
M630.858826,115.178894 
	C624.933044,115.178894 619.007202,115.178894 613.289307,115.178894 
	C613.289307,143.524841 613.289307,171.188721 613.289307,198.991028 
	C616.245544,198.991028 618.763428,199.227020 621.218689,198.935394 
	C624.847290,198.504364 628.431335,197.698364 632.552002,196.388153 
	C632.711426,195.414963 633.009155,194.441895 633.010071,193.468567 
	C633.032837,168.717316 633.044250,143.965973 632.968079,119.214943 
	C632.963928,117.859344 632.184509,116.506149 630.858826,115.178894 
M570.334595,198.743195 
	C575.412048,198.824509 580.492798,199.030167 585.564575,198.896408 
	C586.775696,198.864471 587.956970,197.700378 589.597412,196.349396 
	C589.688782,178.399246 589.780090,160.449112 590.069946,141.878922 
	C594.798889,135.794479 601.260620,134.962616 608.185486,136.603546 
	C608.185486,128.980972 608.185486,122.100723 608.185486,113.607697 
	C603.888550,116.082428 600.245239,117.623375 597.309387,120.028130 
	C594.365479,122.439522 592.127380,125.712646 588.918335,129.360153 
	C588.918335,124.135780 588.918335,119.887909 588.918335,115.208321 
	C582.394897,115.208321 576.279541,115.208321 569.546448,115.721802 
	C569.352722,116.679390 568.991272,117.636726 568.989868,118.594597 
	C568.952637,143.805984 568.939697,169.017456 568.984741,194.228790 
	C568.987000,195.487732 569.548279,196.745682 570.334595,198.743195 
M506.065186,198.541504 
	C515.445618,198.704742 524.825806,198.910263 534.206909,198.979233 
	C535.418762,198.988144 536.635681,198.290298 538.506531,197.571259 
	C551.931213,194.508301 560.522278,186.162323 562.599609,172.712601 
	C565.131470,156.319473 561.127563,142.514420 542.452759,136.739532 
	C554.139771,132.254288 558.811890,126.814606 560.606934,116.377678 
	C563.272156,100.881538 556.235779,86.828979 543.054199,82.710487 
	C530.927856,78.921677 518.407349,81.499527 505.811096,80.749062 
	C505.811096,108.900726 505.787262,136.205017 505.822388,163.509232 
	C505.837189,174.995956 505.976501,186.482498 506.065186,198.541504 
M734.764771,115.155228 
	C731.136353,114.522324 729.104980,115.989838 727.523010,119.417786 
	C723.887634,127.295197 719.759033,134.945023 715.830688,142.687225 
	C715.469910,142.585739 715.109070,142.484253 714.748291,142.382767 
	C714.748291,122.003181 714.748291,101.623589 714.748291,81.186066 
	C708.189880,81.186066 702.136475,81.186066 696.192688,81.186066 
	C696.192688,120.602066 696.192688,159.654922 696.192688,199.250549 
	C702.601685,198.925247 708.579712,198.621826 714.134460,198.339890 
	C716.896729,185.722748 710.989136,172.932434 719.543274,161.260895 
	C722.873779,174.474487 725.952637,186.689713 728.859497,198.222366 
	C735.588928,198.222366 741.605713,198.222366 748.004883,198.222366 
	C743.122742,179.883942 738.323975,162.395691 733.933899,144.805435 
	C733.255127,142.085663 733.755920,138.590088 734.912415,135.986923 
	C737.977173,129.088318 741.699890,122.482025 745.471191,115.156456 
	C741.605530,115.156456 738.640320,115.156456 734.764771,115.155228 
M789.849487,120.684586 
	C783.131653,113.250175 774.830200,112.557076 766.067078,115.716629 
	C757.121094,118.942093 752.896545,126.064583 752.127625,135.251923 
	C750.986755,148.882553 758.575684,157.655807 768.879211,164.960175 
	C772.778259,167.724274 776.768677,170.596909 779.895935,174.144318 
	C782.942322,177.599823 781.771057,182.733078 778.437012,184.592865 
	C774.698730,186.678116 769.480164,184.777954 767.722107,180.505264 
	C766.739929,178.118378 766.140381,175.574051 765.350342,173.042694 
	C760.460266,173.813583 755.898682,174.532700 750.937744,175.314758 
	C751.589233,182.511734 753.139282,189.023926 758.595215,193.830154 
	C767.474976,201.652420 783.235657,200.916504 791.985046,192.445984 
	C800.354187,184.343582 801.531494,168.116440 793.314819,159.632797 
	C787.484375,153.612778 779.992554,149.235229 773.637085,143.673416 
	C771.183594,141.526337 769.077087,138.351334 768.166443,135.247406 
	C767.222534,132.030334 769.059021,128.909897 772.772949,128.126831 
	C776.266052,127.390312 778.984497,128.781036 780.314392,132.269623 
	C781.012878,134.101868 781.586121,135.981888 782.346619,138.226044 
	C786.835205,137.470840 791.180115,136.739807 796.919250,135.774185 
	C794.473877,130.384552 792.398376,125.810135 789.849487,120.684586 
M622.481201,80.805649 
	C619.384888,80.805649 616.288574,80.805649 613.261353,80.805649 
	C613.261353,87.773308 613.261353,94.128105 613.261353,100.841644 
	C618.656433,100.841644 623.613220,101.010452 628.542236,100.715309 
	C629.682556,100.647026 631.616699,99.041389 631.670044,98.060768 
	C631.973267,92.483749 631.817017,86.881729 631.817017,80.806213 
	C628.685364,80.806213 626.072144,80.806213 622.481201,80.805649 
z"/>
<path fill="#E0D136" opacity="1.000000" stroke="none" 
	d="
M467.750000,1.000000 
	C467.999451,93.354225 467.998932,185.708450 467.999207,278.531342 
	C468.000000,279.000000 467.500000,279.000000 467.250000,278.531342 
	C467.000000,185.708450 467.000000,93.354225 467.000000,1.000000 
	C467.000000,1.000000 467.500000,1.000000 467.750000,1.000000 
z"/>
<path fill="#1F521A" opacity="1.000000" stroke="none" 
	d="
M466.750000,1.000000 
	C467.000000,93.354225 467.000000,185.708450 467.000000,278.531342 
	C467.000000,279.000000 466.500000,279.000000 466.250000,279.000000 
	C466.000000,186.645767 466.000000,94.291542 466.000000,1.468657 
	C466.000000,1.000000 466.500000,1.000000 466.750000,1.000000 
z"/>
<path fill="#FEE658" opacity="1.000000" stroke="none" 
	d="
M931.560181,259.047546 
	C931.664124,254.588181 931.857239,250.128830 931.858643,245.669434 
	C931.878967,182.942551 931.915649,120.215614 931.838013,57.488827 
	C931.822388,44.887653 931.348145,32.287056 931.413025,19.474651 
	C932.160461,20.175406 932.580261,21.087702 933.000000,22.000000 
	C933.000000,100.354225 933.000000,178.708450 932.807922,257.650146 
	C932.263977,258.507568 931.912048,258.777557 931.560181,259.047546 
z"/>
<path fill="#71ADAC" opacity="1.000000" stroke="none" 
	d="
M1.000000,22.468658 
	C1.338185,23.169624 1.971534,24.339024 1.972415,25.508904 
	C2.030211,102.214249 2.037559,178.919617 2.036218,255.625000 
	C2.036207,256.277374 1.858201,256.929779 1.381650,257.791077 
	C1.000000,179.645767 1.000000,101.291542 1.000000,22.468658 
z"/>
<path fill="#FAF6E4" opacity="1.000000" stroke="none" 
	d="
M933.000000,21.531086 
	C932.580261,21.087702 932.160461,20.175406 931.525146,19.051605 
	C929.536804,11.422227 924.711609,6.563745 918.142273,3.188864 
	C916.687378,2.441422 915.176147,1.803682 913.345459,1.057718 
	C919.594604,1.000000 926.189209,1.000000 933.000000,1.000000 
	C933.000000,7.685848 933.000000,14.374012 933.000000,21.531086 
z"/>
<path fill="#ECF4F5" opacity="1.000000" stroke="none" 
	d="
M20.530956,1.000000 
	C11.096629,4.208312 4.349606,10.498756 1.343616,20.888905 
	C1.000000,14.407272 1.000000,7.814544 1.000000,1.000000 
	C7.352261,1.000000 13.707088,1.000000 20.530956,1.000000 
z"/>
<path fill="#ECF4F4" opacity="1.000000" stroke="none" 
	d="
M0.999998,259.469055 
	C1.458782,259.612946 2.147948,260.161011 2.341497,260.848602 
	C4.897173,269.928101 10.916524,275.521942 19.871099,278.672119 
	C13.738731,279.000000 7.477464,279.000000 1.000000,279.000000 
	C1.000000,272.647644 1.000000,266.292877 0.999998,259.469055 
z"/>
<path fill="#F9F6F1" opacity="1.000000" stroke="none" 
	d="
M917.153320,277.387787 
	C917.304688,277.314545 917.456116,277.241302 918.217285,277.144836 
	C921.249878,275.155151 923.672791,273.188629 926.095703,271.222107 
	C926.325195,270.958588 926.554626,270.695038 927.311218,270.189819 
	C929.558899,267.298737 931.279419,264.649353 933.000000,262.000000 
	C933.000000,267.589539 933.000000,273.179047 933.000000,279.000000 
	C927.983154,279.000000 922.962769,279.000000 917.504211,278.731262 
	C917.095154,278.104309 917.124268,277.746033 917.153320,277.387787 
z"/>
<path fill="#FCECA4" opacity="1.000000" stroke="none" 
	d="
M933.000000,261.600006 
	C931.279419,264.649353 929.558899,267.298737 927.506531,270.014709 
	C928.551514,266.656860 929.928223,263.232361 931.432556,259.427704 
	C931.912048,258.777557 932.263977,258.507568 932.807922,258.118774 
	C933.000000,259.066681 933.000000,260.133331 933.000000,261.600006 
z"/>
<path fill="#FCECA4" opacity="1.000000" stroke="none" 
	d="
M916.822632,277.331909 
	C917.124268,277.746033 917.095154,278.104309 917.033020,278.731262 
	C915.933289,279.000000 914.866638,279.000000 913.399963,279.000000 
	C914.163940,278.425354 915.327881,277.850708 916.822632,277.331909 
z"/>
<path fill="#F8FCFC" opacity="1.000000" stroke="none" 
	d="
M290.490570,192.753540 
	C290.488098,175.461777 290.496735,158.644623 290.475189,141.827499 
	C290.472443,139.666550 290.404633,137.497269 290.204834,135.346909 
	C289.886383,131.919739 288.294708,129.562897 284.477936,129.974991 
	C280.976166,130.353073 278.767944,131.944046 278.793854,136.059555 
	C278.911316,154.707550 278.844269,173.356674 278.843628,192.005402 
	C278.843567,193.807709 278.843628,195.610031 278.843628,197.701233 
	C272.428619,197.701233 266.373413,197.701233 260.065125,197.701233 
	C260.065125,170.334503 260.065125,143.092728 260.065125,115.498184 
	C266.152161,115.498184 272.224457,115.498184 278.746765,115.498184 
	C278.746765,117.667130 278.746765,119.903923 278.746765,122.495605 
	C282.665436,119.997025 285.928864,117.447525 289.572876,115.684639 
	C298.839783,111.201508 307.002838,115.395363 309.059235,125.410217 
	C309.359863,126.874451 309.725067,128.365540 309.727875,129.844833 
	C309.770416,152.306915 309.757416,174.769119 309.757416,197.615387 
	C303.422577,197.615387 297.215912,197.615387 290.695709,197.615387 
	C290.628174,196.158096 290.560272,194.693130 290.490570,192.753540 
z"/>
<path fill="#FBFEFE" opacity="1.000000" stroke="none" 
	d="
M348.834656,181.997574 
	C348.824280,166.832291 348.943604,152.163895 348.672821,137.502701 
	C348.628906,135.124985 347.420807,132.097366 345.683868,130.655167 
	C344.499023,129.671387 341.046204,130.288803 339.374847,131.373138 
	C337.997986,132.266403 337.111877,134.892639 337.097412,136.759369 
	C336.940613,156.919601 336.999573,177.081512 336.999573,197.616669 
	C330.817627,197.616669 324.753021,197.616669 318.342285,197.616669 
	C318.342285,170.408966 318.342285,143.034973 318.342285,115.409500 
	C324.413055,115.409500 330.346313,115.409500 336.685791,115.409500 
	C336.873047,117.719696 337.062866,120.061760 337.256104,122.446075 
	C340.913483,120.066963 344.157257,117.451485 347.810364,115.680237 
	C356.898743,111.273605 364.831940,115.222549 367.177307,124.993675 
	C367.486664,126.282585 367.883728,127.600464 367.886200,128.905594 
	C367.929443,151.718124 367.917419,174.530746 367.917419,197.666901 
	C361.692322,197.666901 355.618103,197.666901 348.834686,197.666901 
	C348.834686,192.669769 348.834686,187.583313 348.834656,181.997574 
z"/>
<path fill="#F7FBFB" opacity="1.000000" stroke="none" 
	d="
M391.568787,196.668213 
	C383.874939,192.032913 380.132446,185.032074 378.454407,177.022751 
	C375.237213,161.667038 375.016724,146.256973 380.016876,131.185547 
	C382.914185,122.452499 388.607391,116.111809 398.076416,114.418663 
	C406.950958,112.831818 415.205322,115.147148 420.154114,122.699402 
	C423.763947,128.208328 426.144928,134.978760 427.359528,141.505798 
	C429.877014,155.034439 429.537140,168.675659 424.909851,181.890884 
	C419.612213,197.020569 406.853088,202.774231 391.568787,196.668213 
M403.309509,127.960968 
	C399.536865,127.606102 397.972137,130.197739 397.929840,133.111038 
	C397.704010,148.676056 397.627106,164.249115 397.971375,179.808945 
	C398.013153,181.697052 400.695770,184.814285 402.512390,185.102051 
	C406.069641,185.665543 407.013885,182.221527 407.034912,179.313995 
	C407.143890,164.245483 407.193787,149.173981 406.949249,134.108612 
	C406.917053,132.124329 405.079102,130.169357 403.309509,127.960968 
z"/>
<path fill="#FBFEFE" opacity="1.000000" stroke="none" 
	d="
M228.042480,189.931335 
	C228.042358,153.475601 228.042358,117.509407 228.042358,81.199783 
	C235.186035,81.199783 242.060410,81.199783 249.192474,81.199783 
	C249.192474,120.054367 249.192474,158.777359 249.192474,197.731506 
	C242.229111,197.731506 235.454956,197.731506 228.042587,197.731506 
	C228.042587,195.280807 228.042587,192.850845 228.042480,189.931335 
z"/>
<path fill="#040201" opacity="1.000000" stroke="none" 
	d="
M506.059204,197.969131 
	C505.976501,186.482498 505.837189,174.995956 505.822388,163.509232 
	C505.787262,136.205017 505.811096,108.900726 505.811096,80.749062 
	C518.407349,81.499527 530.927856,78.921677 543.054199,82.710487 
	C556.235779,86.828979 563.272156,100.881538 560.606934,116.377678 
	C558.811890,126.814606 554.139771,132.254288 542.452759,136.739532 
	C561.127563,142.514420 565.131470,156.319473 562.599609,172.712601 
	C560.522278,186.162323 551.931213,194.508301 537.731934,197.673584 
	C526.658020,197.840317 516.358582,197.904724 506.059204,197.969131 
M537.041199,178.735031 
	C543.659973,173.035217 542.244141,165.423462 541.420349,158.276627 
	C540.432983,149.710007 536.283142,146.824478 527.293518,147.352127 
	C527.293518,158.425308 527.293518,169.504730 527.293518,181.273163 
	C530.608459,180.445602 533.466797,179.732025 537.041199,178.735031 
M539.920288,104.895218 
	C537.748840,98.683609 534.367798,97.031418 527.217712,98.693161 
	C527.217712,108.621696 527.217712,118.550232 527.217712,128.472290 
	C536.070251,128.588577 539.538574,125.849785 540.283875,117.637024 
	C540.640930,113.702660 540.150085,109.691345 539.920288,104.895218 
z"/>
<path fill="#060301" opacity="1.000000" stroke="none" 
	d="
M735.219910,115.155838 
	C738.640320,115.156456 741.605530,115.156456 745.471191,115.156456 
	C741.699890,122.482025 737.977173,129.088318 734.912415,135.986923 
	C733.755920,138.590088 733.255127,142.085663 733.933899,144.805435 
	C738.323975,162.395691 743.122742,179.883942 748.004883,198.222366 
	C741.605713,198.222366 735.588928,198.222366 728.859497,198.222366 
	C725.952637,186.689713 722.873779,174.474487 719.543274,161.260895 
	C710.989136,172.932434 716.896729,185.722748 714.134460,198.339890 
	C708.579712,198.621826 702.601685,198.925247 696.192688,199.250549 
	C696.192688,159.654922 696.192688,120.602066 696.192688,81.186066 
	C702.136475,81.186066 708.189880,81.186066 714.748291,81.186066 
	C714.748291,101.623589 714.748291,122.003181 714.748291,142.382767 
	C715.109070,142.484253 715.469910,142.585739 715.830688,142.687225 
	C719.759033,134.945023 723.887634,127.295197 727.523010,119.417786 
	C729.104980,115.989838 731.136353,114.522324 735.219910,115.155838 
z"/>
<path fill="#070401" opacity="1.000000" stroke="none" 
	d="
M651.375732,119.113098 
	C656.917603,115.339561 662.868958,113.252838 669.710632,114.303055 
	C679.408081,115.791641 684.884094,120.697464 687.027954,130.388657 
	C688.053467,135.024338 688.678528,139.748611 689.520081,144.637024 
	C688.105103,144.857346 687.474243,145.037567 686.842468,145.040863 
	C682.192444,145.065063 677.542236,145.053940 672.532288,145.053940 
	C672.001587,140.980255 671.810425,136.666122 670.737000,132.584015 
	C670.265259,130.790253 667.996460,129.469116 666.543579,127.933380 
	C665.291626,129.452377 663.183044,130.837357 662.921204,132.511246 
	C660.485352,148.081314 660.556885,163.714325 663.032654,179.268921 
	C663.326050,181.111923 665.671631,182.628281 667.065979,184.296066 
	C668.807739,182.793396 671.433350,181.608292 672.110718,179.723145 
	C673.607178,175.558517 674.122803,171.041534 675.126953,166.246307 
	C679.587280,166.441269 684.023315,166.635178 688.413940,166.827087 
	C690.773376,178.193527 685.287048,192.626816 677.121643,196.829468 
	C667.920288,201.565369 656.786926,199.363220 648.478699,190.740356 
	C646.104797,186.097641 644.144836,181.960388 642.184875,177.823151 
	C642.184875,177.823135 642.096130,177.908478 642.131714,177.472458 
	C638.854309,158.623138 638.575073,140.505737 647.410522,123.277313 
	C647.410522,123.277313 647.294739,123.264290 647.586121,123.200409 
	C648.356201,122.499245 648.834961,121.861961 649.313660,121.224678 
	C649.313660,121.224678 649.215027,121.208626 649.483093,121.169952 
	C649.933777,120.822212 650.116333,120.513145 650.298950,120.204071 
	C650.298950,120.204079 650.182861,120.188766 650.465820,120.143646 
	C650.957825,119.770050 651.166809,119.441582 651.375732,119.113098 
z"/>
<path fill="#080501" opacity="1.000000" stroke="none" 
	d="
M790.086182,120.960144 
	C792.398376,125.810135 794.473877,130.384552 796.919250,135.774185 
	C791.180115,136.739807 786.835205,137.470840 782.346619,138.226044 
	C781.586121,135.981888 781.012878,134.101868 780.314392,132.269623 
	C778.984497,128.781036 776.266052,127.390312 772.772949,128.126831 
	C769.059021,128.909897 767.222534,132.030334 768.166443,135.247406 
	C769.077087,138.351334 771.183594,141.526337 773.637085,143.673416 
	C779.992554,149.235229 787.484375,153.612778 793.314819,159.632797 
	C801.531494,168.116440 800.354187,184.343582 791.985046,192.445984 
	C783.235657,200.916504 767.474976,201.652420 758.595215,193.830154 
	C753.139282,189.023926 751.589233,182.511734 750.937744,175.314758 
	C755.898682,174.532700 760.460266,173.813583 765.350342,173.042694 
	C766.140381,175.574051 766.739929,178.118378 767.722107,180.505264 
	C769.480164,184.777954 774.698730,186.678116 778.437012,184.592865 
	C781.771057,182.733078 782.942322,177.599823 779.895935,174.144318 
	C776.768677,170.596909 772.778259,167.724274 768.879211,164.960175 
	C758.575684,157.655807 750.986755,148.882553 752.127625,135.251923 
	C752.896545,126.064583 757.121094,118.942093 766.067078,115.716629 
	C774.830200,112.557076 783.131653,113.250175 790.086182,120.960144 
z"/>
<path fill="#060301" opacity="1.000000" stroke="none" 
	d="
M570.164185,115.208321 
	C576.279541,115.208321 582.394897,115.208321 588.918335,115.208321 
	C588.918335,119.887909 588.918335,124.135780 588.918335,129.360153 
	C592.127380,125.712646 594.365479,122.439522 597.309387,120.028130 
	C600.245239,117.623375 603.888550,116.082428 608.185486,113.607697 
	C608.185486,122.100723 608.185486,128.980972 608.185486,136.603546 
	C601.260620,134.962616 594.798889,135.794479 589.644714,142.513428 
	C589.197021,161.117630 589.174561,179.087326 589.152100,197.057022 
	C587.956970,197.700378 586.775696,198.864471 585.564575,198.896408 
	C580.492798,199.030167 575.412048,198.824509 570.167603,197.909271 
	C570.055054,169.786346 570.109619,142.497330 570.164185,115.208321 
z"/>
<path fill="#070401" opacity="1.000000" stroke="none" 
	d="
M632.034363,197.052032 
	C628.431335,197.698364 624.847290,198.504364 621.218689,198.935394 
	C618.763428,199.227020 616.245544,198.991028 613.289307,198.991028 
	C613.289307,171.188721 613.289307,143.524841 613.289307,115.178894 
	C619.007202,115.178894 624.933044,115.178894 631.327942,115.620743 
	C631.876160,143.059067 631.955261,170.055542 632.034363,197.052032 
z"/>
<path fill="#0E0800" opacity="1.000000" stroke="none" 
	d="
M622.970093,80.805931 
	C626.072144,80.806213 628.685364,80.806213 631.817017,80.806213 
	C631.817017,86.881729 631.973267,92.483749 631.670044,98.060768 
	C631.616699,99.041389 629.682556,100.647026 628.542236,100.715309 
	C623.613220,101.010452 618.656433,100.841644 613.261353,100.841644 
	C613.261353,94.128105 613.261353,87.773308 613.261353,80.805649 
	C616.288574,80.805649 619.384888,80.805649 622.970093,80.805931 
z"/>
<path fill="#E8CA47" opacity="1.000000" stroke="none" 
	d="
M569.855347,115.465057 
	C570.109619,142.497330 570.055054,169.786346 569.924927,197.539719 
	C569.548279,196.745682 568.987000,195.487732 568.984741,194.228790 
	C568.939697,169.017456 568.952637,143.805984 568.989868,118.594597 
	C568.991272,117.636726 569.352722,116.679390 569.855347,115.465057 
z"/>
<path fill="#DEBB2B" opacity="1.000000" stroke="none" 
	d="
M647.077759,123.388550 
	C638.575073,140.505737 638.854309,158.623138 642.191223,177.456833 
	C641.326660,174.934448 640.067261,172.047699 639.612732,169.039352 
	C637.498352,155.044113 638.450439,141.302689 643.873291,128.080765 
	C644.547180,126.437576 645.774292,125.021240 647.077759,123.388550 
z"/>
<path fill="#EFC937" opacity="1.000000" stroke="none" 
	d="
M632.293213,196.720093 
	C631.955261,170.055542 631.876160,143.059067 631.781494,115.607208 
	C632.184509,116.506149 632.963928,117.859344 632.968079,119.214943 
	C633.044250,143.965973 633.032837,168.717316 633.010071,193.468567 
	C633.009155,194.441895 632.711426,195.414963 632.293213,196.720093 
z"/>
<path fill="#F1C932" opacity="1.000000" stroke="none" 
	d="
M589.374756,196.703217 
	C589.174561,179.087326 589.197021,161.117630 589.545410,142.823441 
	C589.780090,160.449112 589.688782,178.399246 589.374756,196.703217 
z"/>
<path fill="#EAC945" opacity="1.000000" stroke="none" 
	d="
M506.062195,198.255310 
	C516.358582,197.904724 526.658020,197.840317 537.403809,197.847870 
	C536.635681,198.290298 535.418762,198.988144 534.206909,198.979233 
	C524.825806,198.910263 515.445618,198.704742 506.062195,198.255310 
z"/>
<path fill="#DEBB2B" opacity="1.000000" stroke="none" 
	d="
M642.129456,178.225128 
	C644.144836,181.960388 646.104797,186.097641 648.199463,190.578186 
	C646.247437,186.823334 644.160767,182.725220 642.129456,178.225128 
z"/>
<path fill="#FCECA4" opacity="1.000000" stroke="none" 
	d="
M925.763245,271.256104 
	C923.672791,273.188629 921.249878,275.155151 918.464600,277.094910 
	C920.545105,275.142151 922.987915,273.216156 925.763245,271.256104 
z"/>
<path fill="#DEBB2B" opacity="1.000000" stroke="none" 
	d="
M648.993286,121.288544 
	C648.834961,121.861961 648.356201,122.499245 647.597839,123.257492 
	C647.769714,122.703110 648.221313,122.027756 648.993286,121.288544 
z"/>
<path fill="#DEBB2B" opacity="1.000000" stroke="none" 
	d="
M650.037842,120.294563 
	C650.116333,120.513145 649.933777,120.822212 649.488892,121.219574 
	C649.410034,121.000259 649.593384,120.692657 650.037842,120.294563 
z"/>
<path fill="#DEBB2B" opacity="1.000000" stroke="none" 
	d="
M651.099243,119.221283 
	C651.166809,119.441582 650.957825,119.770050 650.470337,120.202019 
	C650.402161,119.980156 650.612427,119.654800 651.099243,119.221283 
z"/>
<path fill="#075751" opacity="1.000000" stroke="none" 
	d="
M403.693512,128.080887 
	C405.079102,130.169357 406.917053,132.124329 406.949249,134.108612 
	C407.193787,149.173981 407.143890,164.245483 407.034912,179.313995 
	C407.013885,182.221527 406.069641,185.665543 402.512390,185.102051 
	C400.695770,184.814285 398.013153,181.697052 397.971375,179.808945 
	C397.627106,164.249115 397.704010,148.676056 397.929840,133.111038 
	C397.972137,130.197739 399.536865,127.606102 403.693512,128.080887 
z"/>
<path fill="#F5C80B" opacity="1.000000" stroke="none" 
	d="
M536.683228,178.876740 
	C533.466797,179.732025 530.608459,180.445602 527.293518,181.273163 
	C527.293518,169.504730 527.293518,158.425308 527.293518,147.352127 
	C536.283142,146.824478 540.432983,149.710007 541.420349,158.276627 
	C542.244141,165.423462 543.659973,173.035217 536.683228,178.876740 
z"/>
<path fill="#F4C70D" opacity="1.000000" stroke="none" 
	d="
M539.981812,105.305054 
	C540.150085,109.691345 540.640930,113.702660 540.283875,117.637024 
	C539.538574,125.849785 536.070251,128.588577 527.217712,128.472290 
	C527.217712,118.550232 527.217712,108.621696 527.221313,98.692322 
	C534.367798,97.031418 537.748840,98.683609 539.981812,105.305054 
z"/>
</svg>